HIERARCHY
ROOT Hips
{
  OFFSET 52.0728 91.63 5.2421
  CHANNELS 6 Xposition Yposition Zposition Zrotation Xrotation Yrotation
  JOINT spine
  {
    OFFSET 0 6.84637 0.3937
    CHANNELS 3 Zrotation Xrotation Yrotation
    JOINT spine1
    {
      OFFSET 0 9.49621 0
      CHANNELS 3 Zrotation Xrotation Yrotation
      JOINT spine2
      {
        OFFSET 0 9.09909 0
        CHANNELS 3 Zrotation Xrotation Yrotation
        JOINT Neck
        {
          OFFSET 0 23.3612 1.11378
          CHANNELS 3 Zrotation Xrotation Yrotation
          JOINT Head
          {
            OFFSET 0 7.05802 0
            CHANNELS 3 Zrotation Xrotation Yrotation
            End Site
            {
              OFFSET 0 17.0844 -5.63419
            }
          }
        }
        JOINT RightShoulder
        {
          OFFSET -3.83136 9.82631 -0.533491
          CHANNELS 3 Zrotation Xrotation Yrotation
          JOINT RightArm
          {
            OFFSET 0 12.8881 0
            CHANNELS 3 Zrotation Xrotation Yrotation
            JOINT RightArmRoll
            {
              OFFSET 0 6.50617 0
              CHANNELS 3 Zrotation Xrotation Yrotation
              JOINT RightForeArm
              {
                OFFSET 0 18.9501 0
                CHANNELS 3 Zrotation Xrotation Yrotation
                JOINT RightForeArmRoll
                {
                  OFFSET 0 7.30092 0
                  CHANNELS 3 Zrotation Xrotation Yrotation
                  JOINT RightHand
                  {
                    OFFSET 0 14.6514 0
                    CHANNELS 3 Zrotation Xrotation Yrotation
                    End Site
                    {
                      OFFSET 0 0 0
                    }
                  }
                }
              }
            }
          }
        }
        JOINT LeftShoulder
        {
          OFFSET 3.83136 9.82631 -0.533491
          CHANNELS 3 Zrotation Xrotation Yrotation
          JOINT LeftArm
          {
            OFFSET 0 12.8881 0
            CHANNELS 3 Zrotation Xrotation Yrotation
            JOINT LeftArmRoll
            {
              OFFSET 0 6.50617 0
              CHANNELS 3 Zrotation Xrotation Yrotation
              JOINT LeftForeArm
              {
                OFFSET 0 18.9501 0
                CHANNELS 3 Zrotation Xrotation Yrotation
                JOINT LeftForeArmRoll
                {
                  OFFSET 0 7.30092 0
                  CHANNELS 3 Zrotation Xrotation Yrotation
                  JOINT LeftHand
                  {
                    OFFSET 0 14.6514 0
                    CHANNELS 3 Zrotation Xrotation Yrotation
                    End Site
                    {
                      OFFSET 0 0 0
                    }
                  }
                }
              }
            }
          }
        }
      }
    }
  }
  JOINT RightUpLeg
  {
    OFFSET -6.06837 -1.11278 -0.933477
    CHANNELS 3 Zrotation Xrotation Yrotation
    JOINT RightUpLegRoll
    {
      OFFSET 0 17.1796 0
      CHANNELS 3 Zrotation Xrotation Yrotation
      JOINT RightLeg
      {
        OFFSET 0 -21.2743 0
        CHANNELS 3 Zrotation Xrotation Yrotation
        JOINT RightLegRoll
        {
          OFFSET 0 21.3439 0
          CHANNELS 3 Zrotation Xrotation Yrotation
          JOINT RightFoot
          {
            OFFSET 0 17.7652 0
            CHANNELS 3 Zrotation Xrotation Yrotation
            JOINT RightToeBase
            {
              OFFSET 0 14.8508 0
              CHANNELS 3 Zrotation Xrotation Yrotation
              End Site
              {
                OFFSET 0.0062947 7.19214 -0.829005
              }
            }
          }
        }
      }
    }
  }
  JOINT LeftUpLeg
  {
    OFFSET 6.06837 -1.11278 -0.933477
    CHANNELS 3 Zrotation Xrotation Yrotation
    JOINT LeftUpLegRoll
    {
      OFFSET 0 17.1797 0
      CHANNELS 3 Zrotation Xrotation Yrotation
      JOINT LeftLeg
      {
        OFFSET 0 21.2742 0
        CHANNELS 3 Zrotation Xrotation Yrotation
        JOINT LeftLegRoll
        {
          OFFSET 0 21.5412 0
          CHANNELS 3 Zrotation Xrotation Yrotation
          JOINT LeftFoot
          {
            OFFSET 0 17.5679 0
            CHANNELS 3 Zrotation Xrotation Yrotation
            JOINT LeftToeBase
            {
              OFFSET 0 14.8508 0
              CHANNELS 3 Zrotation Xrotation Yrotation
              End Site
              {
                OFFSET -0.0282102 7.19214 -0.829005
              }
            }
          }
        }
      }
    }
  }
}
MOTION
Frames: 10
Frame Time: 0.00208333
51.2105 91.4351 6.27685 -2.51048 5.39923 -0.344736 -1.38899 -4.11695 0.286366 -2.74055 -4.24049 0.650142 -2.74597 -2.59656 0.69846 32.9582 17.3613 -11.951 -22.0339 6.5823 -1.32069 12.6781 -25.8502 -29.4396 -38.3643 41.7215 136.529 2.15827e-007 1.43977e-006 -3.63455e-006 -10.835 23.3248 3.30884 -1.08958e-005 1.57913e-006 -3 8.02909 -4.95146 0.69768 -56.1782 1.14896 -1.11413 -113.133 8.68388 -27.4346 -2.36511e-007 1.25708e-008 3.79048e-006 -4.33205 0.955465 0.184758 1.10192e-005 -3.14871e-006 3.00492 -8.0289 -4.95147 -0.6977 -179.83 7.94304 -2.27196 180 7.0159e-015 179.131 178.228 4.41679 179.952 -7.54547e-008 2.19107e-006 0.04072 -18.6803 68.0147 19.5498 8.13649 25.2326 -3.48773 -171.001 5.20444 -2.48332 4.54188e-006 -4.6773e-006 -0.97221 -2.27732 -5.46135 0.0220267 3.40002e-006 -2.58338e-006 -0.0708395 18.9105 68.3467 -19.8222 -8.13649 25.2327 3.48773 
51.2017 91.4334 6.2791 -2.49429 5.39974 -0.348179 -1.39312 -4.11914 0.286341 -2.74767 -4.24488 0.651071 -2.75309 -2.60096 0.698763 32.8609 17.3545 -11.8986 -21.9818 6.64652 -1.29066 12.5797 -25.8616 -29.4978 -38.5879 41.7256 136.753 2.15827e-007 1.43977e-006 -3.63455e-006 -10.8276 23.3584 3.31023 -1.08958e-005 1.57913e-006 -3 8.02909 -4.95146 0.69768 -56.1813 1.07961 -1.06873 -113.13 8.71052 -27.445 -2.36511e-007 1.25708e-008 3.79048e-006 -4.31186 0.945781 0.183619 1.10192e-005 -3.14871e-006 3.00492 -8.0289 -4.95147 -0.6977 -179.841 7.95373 -2.2677 180 7.0159e-015 179.131 178.23 4.42897 179.952 -7.54547e-008 2.19107e-006 0.0407031 -18.6804 68.0148 19.5498 8.13649 25.2326 -3.48773 -171.013 5.18736 -2.47704 4.54188e-006 -4.6773e-006 -0.97231 -2.27945 -5.43214 0.0216131 3.40002e-006 -2.58338e-006 -0.070105 18.9 68.334 -19.8109 -8.13649 25.2327 3.48773 
51.195 91.4358 6.28209 -2.47849 5.40022 -0.351368 -1.39714 -4.12125 0.28637 -2.75471 -4.2491 0.652036 -2.76012 -2.60519 0.699151 32.766 17.3491 -11.8468 -21.932 6.70714 -1.26082 12.4842 -25.8719 -29.5532 -38.8023 41.7301 136.969 2.15827e-007 1.43977e-006 -3.63455e-006 -10.8212 23.3876 3.31127 -1.08958e-005 1.57913e-006 -3 8.02909 -4.95146 0.69768 -56.1836 1.0116 -1.02429 -113.128 8.73643 -27.4541 -2.36511e-007 1.25708e-008 3.79048e-006 -4.29294 0.937431 0.182602 1.10192e-005 -3.14871e-006 3.00492 -8.0289 -4.95147 -0.6977 -179.852 7.96345 -2.26337 180 7.0159e-015 179.131 178.232 4.44006 179.952 -7.54547e-008 2.19107e-006 0.0406862 -18.6805 68.0149 19.5498 8.13649 25.2326 -3.48773 -171.025 5.17076 -2.47066 4.54188e-006 -4.6773e-006 -0.972408 -2.28123 -5.40364 0.0212221 3.40002e-006 -2.58338e-006 -0.069372 18.8898 68.3215 -19.8 -8.13649 25.2327 3.48773 
51.1865 91.4349 6.28494 -2.46312 5.40069 -0.354258 -1.40105 -4.12328 0.286459 -2.76166 -4.25315 0.653026 -2.76707 -2.60924 0.69963 32.6742 17.3453 -11.7959 -21.8851 6.76373 -1.23118 12.3918 -25.8809 -29.6053 -39.0071 41.7351 137.178 2.15827e-007 1.43977e-006 -3.63455e-006 -10.8161 23.4126 3.31215 -1.08958e-005 1.57913e-006 -3 8.02909 -4.95146 0.69768 -56.185 0.94516 -0.980992 -113.127 8.76139 -27.4616 -2.36511e-007 1.25708e-008 3.79048e-006 -4.27559 0.93054 0.18172 1.10192e-005 -3.14871e-006 3.00492 -8.0289 -4.95147 -0.6977 -179.863 7.97187 -2.25895 180 7.0159e-015 179.131 178.234 4.44966 179.953 -7.54547e-008 2.19107e-006 0.0406692 -18.6805 68.0149 19.5499 8.13649 25.2326 -3.48773 -171.037 5.15472 -2.46415 4.54188e-006 -4.6773e-006 -0.972505 -2.28259 -5.37595 0.0208567 3.40002e-006 -2.58338e-006 -0.0686395 18.8798 68.3093 -19.7893 -8.13649 25.2327 3.48773 
51.1806 91.4396 6.28794 -2.44821 5.40117 -0.356802 -1.40483 -4.12523 0.286613 -2.76855 -4.25702 0.654028 -2.77396 -2.61312 0.70021 32.5861 17.3431 -11.746 -21.8413 6.81584 -1.20174 12.3027 -25.8885 -29.6541 -39.2019 41.7402 137.381 2.15827e-007 1.43977e-006 -3.63455e-006 -10.8125 23.4337 3.31303 -1.08958e-005 1.57913e-006 -3 8.02909 -4.95146 0.69768 -56.1853 0.880524 -0.939007 -113.127 8.78518 -27.4674 -2.36511e-007 1.25708e-008 3.79048e-006 -4.26008 0.925232 0.180987 1.10192e-005 -3.14871e-006 3.00491 -8.0289 -4.95147 -0.6977 -179.874 7.97868 -2.25441 180 7.0159e-015 179.131 178.236 4.45746 179.953 -7.54547e-008 2.19107e-006 0.0406522 -18.6806 68.015 19.5499 8.13649 25.2326 -3.48773 -171.049 5.13933 -2.45747 4.54188e-006 -4.6773e-006 -0.972607 -2.28348 -5.34917 0.0205197 3.40002e-006 -2.58338e-006 -0.0679063 18.8701 68.2975 -19.779 -8.13649 25.2327 3.48773 
51.1774 91.4385 6.29011 -2.43378 5.40166 -0.358954 -1.40849 -4.1271 0.286839 -2.77539 -4.26072 0.655031 -2.7808 -2.61682 0.700896 32.5024 17.3427 -11.6973 -21.8013 6.86305 -1.17251 12.2171 -25.8947 -29.6992 -39.3862 41.7454 137.578 2.15827e-007 1.43977e-006 -3.63455e-006 -10.8108 23.451 3.31407 -1.08958e-005 1.57913e-006 -3 8.02909 -4.95146 0.69768 -56.1844 0.817921 -0.898511 -113.128 8.80757 -27.4711 -2.36511e-007 1.25708e-008 3.79048e-006 -4.24672 0.921635 0.180415 1.10192e-005 -3.14871e-006 3.00491 -8.0289 -4.95147 -0.6977 -179.884 7.98356 -2.24971 180 7.0159e-015 179.131 178.237 4.46304 179.953 -7.54547e-008 2.19107e-006 0.0406352 -18.6807 68.0151 19.5499 8.13649 25.2326 -3.48773 -171.061 5.12467 -2.45058 4.54188e-006 -4.6773e-006 -0.972717 -2.28383 -5.32338 0.0202141 3.40002e-006 -2.58338e-006 -0.0671713 18.8608 68.2861 -19.7691 -8.13649 25.2327 3.48773 
51.1689 91.4373 6.29266 -2.41972 5.40216 -0.360866 -1.41206 -4.12891 0.28716 -2.78225 -4.26426 0.656103 -2.78766 -2.62037 0.701724 32.4233 17.3437 -11.6491 -21.7662 6.90607 -1.1428 12.135 -25.8996 -29.741 -39.5622 41.751 137.768 2.15827e-007 1.43977e-006 -3.63455e-006 -10.8105 23.4633 3.31487 -1.08958e-005 1.57913e-006 -3 8.02909 -4.95146 0.69768 -56.1827 0.75733 -0.859435 -113.131 8.82873 -27.4732 -2.36511e-007 1.25708e-008 3.79048e-006 -4.23509 0.919383 0.179974 1.10192e-005 -3.14871e-006 3.00491 -8.0289 -4.95147 -0.6977 -179.894 7.98693 -2.24471 180 7.0159e-015 179.131 178.238 4.46687 179.953 -7.54547e-008 2.19107e-006 0.0406181 -18.6808 68.0152 19.55 8.13649 25.2326 -3.48773 -171.073 5.11055 -2.44338 4.54188e-006 -4.6773e-006 -0.972824 -2.28361 -5.29832 0.0199378 3.40002e-006 -2.58338e-006 -0.0664174 18.8517 68.275 -19.7594 -8.13649 25.2327 3.48773 
51.1613 91.4367 6.29005 -2.40589 5.40264 -0.362703 -1.41559 -4.13066 0.287589 -2.78913 -4.26765 0.657306 -2.79454 -2.62376 0.702709 32.3482 17.3452 -11.6008 -21.7366 6.94598 -1.1121 12.0563 -25.9035 -29.7802 -39.7317 41.7574 137.952 2.15827e-007 1.43977e-006 -3.63455e-006 -10.811 23.4697 3.31494 -1.08958e-005 1.57913e-006 -3 8.02909 -4.95146 0.69768 -56.1807 0.698471 -0.821525 -113.133 8.84903 -27.4744 -2.36511e-007 1.25708e-008 3.79048e-006 -4.22458 0.918065 0.179626 1.10192e-005 -3.14871e-006 3.00491 -8.0289 -4.95147 -0.6977 -179.905 7.98943 -2.23931 180 7.0159e-015 179.131 178.239 4.46963 179.953 -7.54547e-008 2.19107e-006 0.040601 -18.6808 68.0153 19.55 8.13649 25.2326 -3.48773 -171.084 5.09673 -2.43581 4.54188e-006 -4.6773e-006 -0.972918 -2.28288 -5.2737 0.0196861 3.40002e-006 -2.58338e-006 -0.0656332 18.8427 68.2641 -19.7498 -8.13649 25.2327 3.48773 
51.1573 91.4338 6.29364 -2.39232 5.40308 -0.364437 -1.41906 -4.13235 0.28811 -2.79601 -4.27089 0.658624 -2.80143 -2.62701 0.703832 32.2766 17.3476 -11.5524 -21.7114 6.98278 -1.08068 11.9809 -25.9065 -29.8166 -39.8943 41.7647 138.128 2.15827e-007 1.43977e-006 -3.63455e-006 -10.8123 23.4705 3.31431 -1.08958e-005 1.57913e-006 -3 8.02909 -4.95146 0.69768 -56.1784 0.641184 -0.78468 -113.137 8.86856 -27.4745 -2.36511e-007 1.25708e-008 3.79048e-006 -4.21512 0.917734 0.179373 1.10192e-005 -3.14871e-006 3.00491 -8.0289 -4.95147 -0.6977 -179.915 7.99114 -2.2336 180 7.0159e-015 179.131 178.24 4.47148 179.953 -7.54547e-008 2.19107e-006 0.0405839 -18.6809 68.0153 19.55 8.13649 25.2326 -3.48773 -171.096 5.08323 -2.42796 4.54188e-006 -4.6773e-006 -0.973001 -2.28168 -5.24955 0.0194577 3.40002e-006 -2.58338e-006 -0.0648265 18.8339 68.2533 -19.7404 -8.13649 25.2327 3.48773 
51.1509 91.4346 6.30446 -2.37904 5.40348 -0.366043 -1.42247 -4.13398 0.288711 -2.80286 -4.27397 0.660036 -2.80828 -2.63009 0.705073 32.2078 17.3508 -11.5041 -21.6899 7.01651 -1.04883 11.9086 -25.9085 -29.8503 -40.0496 41.7731 138.297 2.15827e-007 1.43977e-006 -3.63455e-006 -10.8143 23.466 3.31303 -1.08958e-005 1.57913e-006 -3 8.02909 -4.95146 0.69768 -56.1758 0.58531 -0.748798 -113.14 8.88743 -27.4738 -2.36511e-007 1.25708e-008 3.79048e-006 -4.20668 0.918443 0.179219 1.10192e-005 -3.14871e-006 3.0049 -8.0289 -4.95147 -0.6977 -179.926 7.99214 -2.22766 180 7.0159e-015 179.131 178.24 4.47247 179.953 -7.54547e-008 2.19107e-006 0.0405667 -18.6809 68.0154 19.55 8.13649 25.2326 -3.48773 -171.108 5.07006 -2.41988 4.54188e-006 -4.6773e-006 -0.973072 -2.28008 -5.2259 0.0192513 3.40002e-006 -2.58338e-006 -0.0640049 18.8251 68.2427 -19.7311 -8.13649 25.2327 3.48773 
